<svg xmlns="http://www.w3.org/2000/svg" width="1136.46" height="248.3" viewBox="0 0 1136.46 248.3">
  <g id="Group_298" data-name="Group 298" transform="translate(-554.64 -393.2)">
    <linearGradient id="gradient" x1="0%" y1="0%" x2="100%" y2="0%">
      <stop offset="0%" style="stop-color:#3B82F6;stop-opacity:1" />
      <stop offset="100%" style="stop-color:#6366F1;stop-opacity:1" />
    </linearGradient>
    <path id="Path_35" data-name="Path 35" d="M16.64,0V-29.12H35.88V0ZM215.02-184.6,90.22,0H64.74L189.28-184.6Zm9.36,117a78.188,78.188,0,0,1,7.93-35.23,66.3,66.3,0,0,1,21.84-25.61A54.635,54.635,0,0,1,286-138.06a52.143,52.143,0,0,1,29.38,8.58,64.375,64.375,0,0,1,20.28,20.8V-189.8h22.88V-26q0,4.16,1.69,6.11t5.59,2.21V0a68.573,68.573,0,0,1-10.14,1.04,16.892,16.892,0,0,1-11.83-4.68q-5.07-4.68-5.07-10.4V-25.48A58.456,58.456,0,0,1,317.2-4.94,56.9,56.9,0,0,1,289.12,2.6a59.779,59.779,0,0,1-25.87-5.59,63,63,0,0,1-20.54-15.47,73.088,73.088,0,0,1-13.52-22.49A74.135,74.135,0,0,1,224.38-67.6ZM335.66-47.58v-39a43.2,43.2,0,0,0-10.14-15.99,57.607,57.607,0,0,0-15.73-11.44,38.874,38.874,0,0,0-17.29-4.29,38.9,38.9,0,0,0-18.33,4.29,44.842,44.842,0,0,0-14.04,11.44,52.1,52.1,0,0,0-8.97,16.25,58.113,58.113,0,0,0-3.12,18.98,53,53,0,0,0,3.51,19.24,51.138,51.138,0,0,0,9.88,16.12,45.7,45.7,0,0,0,14.82,10.92,43.206,43.206,0,0,0,18.33,3.9,38.567,38.567,0,0,0,12.87-2.34A52.769,52.769,0,0,0,320.06-26a43.445,43.445,0,0,0,10.14-9.75A29.927,29.927,0,0,0,335.66-47.58ZM606.58,0H583.7V-75.92q0-21.32-6.89-31.46T556.4-117.52q-13.78,0-24.96,10.01T515.58-81.64V0H492.7V-75.92q0-21.58-6.76-31.59t-20.28-10.01q-13.52,0-24.83,9.75T424.84-81.9V0H401.96V-135.72h20.8v29.12q8.32-15.08,21.58-23.27a55.74,55.74,0,0,1,29.9-8.19q16.9,0,27.04,9.23t12.48,23.79q9.1-16.12,22.1-24.57a53.178,53.178,0,0,1,29.64-8.45q11.7,0,19.63,4.29a32.8,32.8,0,0,1,12.61,11.96,55.2,55.2,0,0,1,6.76,18.07,115.418,115.418,0,0,1,2.08,22.62Zm44.46,36.92q3.38.26,6.76.65a48.825,48.825,0,0,0,5.2.39,10.435,10.435,0,0,0,7.28-2.86q3.12-2.86,6.89-11.05T686.92,0L629.46-135.72h24.18L699.4-23.14l41.34-112.58h22.62L697.32,35.62a39.662,39.662,0,0,1-6.89,11.31,32.05,32.05,0,0,1-11.57,8.45,41.441,41.441,0,0,1-16.9,3.12,45.951,45.951,0,0,1-4.81-.26,60.157,60.157,0,0,1-6.11-1.04Zm130-51.74,85.54-104.26h-83.2v-16.64H892.32v14.82L807.3-16.64h85.28V0H781.04ZM982.54,2.6a68.216,68.216,0,0,1-27.95-5.59,67.274,67.274,0,0,1-21.84-15.34,70.073,70.073,0,0,1-14.3-22.49,72.45,72.45,0,0,1-5.07-27.04,70.864,70.864,0,0,1,8.84-35.1,68.585,68.585,0,0,1,24.57-25.48q15.73-9.62,36.01-9.62,20.54,0,35.75,9.75a68.125,68.125,0,0,1,23.66,25.48,70.594,70.594,0,0,1,8.45,33.93q0,2.6-.13,5.07a28.133,28.133,0,0,1-.39,3.77H937.56a51.583,51.583,0,0,0,7.41,23.53,46.65,46.65,0,0,0,16.51,16.12,42.974,42.974,0,0,0,21.84,5.85,47.11,47.11,0,0,0,23.53-6.24q11.05-6.24,15.21-16.38l19.76,5.46a52.332,52.332,0,0,1-13.13,17.68,64.007,64.007,0,0,1-20.54,12.22A72.6,72.6,0,0,1,982.54,2.6ZM936.78-75.92h92.56a49.844,49.844,0,0,0-7.54-23.4,46.975,46.975,0,0,0-16.64-15.86,44.723,44.723,0,0,0-22.36-5.72,44.221,44.221,0,0,0-22.1,5.72,45.911,45.911,0,0,0-16.51,15.86A50.727,50.727,0,0,0,936.78-75.92ZM1153.1-115.7q-17.16.26-30.29,8.71a45.741,45.741,0,0,0-18.59,23.27V0h-22.88V-135.72h21.32v31.46a63.42,63.42,0,0,1,18.59-22.75q11.57-8.71,24.31-9.75h4.42a16.148,16.148,0,0,1,3.12.26Z" transform="translate(538 583)" fill="url(#gradient)"/>
  </g>
</svg>
